<?xml version="1.0" encoding="UTF-8" standalone="no"?>
<!-- Created with Inkscape (http://www.inkscape.org/) -->

<svg
   xmlns:sketch="http://www.bohemiancoding.com/sketch/ns"
   xmlns:dc="http://purl.org/dc/elements/1.1/"
   xmlns:cc="http://creativecommons.org/ns#"
   xmlns:rdf="http://www.w3.org/1999/02/22-rdf-syntax-ns#"
   xmlns:svg="http://www.w3.org/2000/svg"
   xmlns="http://www.w3.org/2000/svg"
   xmlns:sodipodi="http://sodipodi.sourceforge.net/DTD/sodipodi-0.dtd"
   xmlns:inkscape="http://www.inkscape.org/namespaces/inkscape"
   width="512pt"
   height="512pt"
   viewBox="0 0 640.00002 639.99999"
   id="svg2"
   version="1.1"
   inkscape:version="0.91 r13725"
   sodipodi:docname="logo.svg">
  <defs
     id="defs4" />
  <sodipodi:namedview
     id="base"
     pagecolor="#d32d27"
     bordercolor="#666666"
     borderopacity="1.0"
     inkscape:pageopacity="1"
     inkscape:pageshadow="2"
     inkscape:zoom="0.98994949"
     inkscape:cx="471.96397"
     inkscape:cy="352.17533"
     inkscape:document-units="px"
     inkscape:current-layer="layer1"
     showgrid="false"
     units="pt"
     inkscape:window-width="1916"
     inkscape:window-height="1155"
     inkscape:window-x="4"
     inkscape:window-y="1"
     inkscape:window-maximized="1" />
  <metadata
     id="metadata7">
    <rdf:RDF>
      <cc:Work
         rdf:about="">
        <dc:format>image/svg+xml</dc:format>
        <dc:type
           rdf:resource="http://purl.org/dc/dcmitype/StillImage" />
        <dc:title></dc:title>
      </cc:Work>
    </rdf:RDF>
  </metadata>
  <g
     inkscape:label="Layer 1"
     inkscape:groupmode="layer"
     id="layer1"
     transform="translate(0,-412.36222)">
    <g
       id="g3468"
       sketch:type="MSLayerGroup"
       transform="matrix(6.0811688,0,0,6.0811688,-1561.7143,540.93369)">
      <g
         sketch:type="MSShapeGroup"
         id="Group">
        <path
           d="M 0.4,0.3 C 0.7,0.1 1.1,0 1.7,0 l 5.7,0 c 0.7,0 1.2,0.1 1.4,0.3 0.3,0.2 0.4,0.6 0.4,1.3 l 0,35.3 c 0,2 0.5,3.4 1.5,4.2 1,0.8 2.3,1.2 4,1.2 l 13.3,0 c 0.6,0 1.2,0 1.6,0.4 0.4,0.3 0.3,0.5 0.5,1.3 0.3,0.8 0.8,4.8 0.8,4.8 0,0.4 0,0.7 -0.3,1 -0.3,0.3 -0.8,0.5 -1.2,0.6 -0.4,0.1 -1.3,0.2 -2.5,0.2 -1.2,0 -13.6,0 -13.6,0 -2.6,0 -4.8,-0.4 -6.5,-1.1 C 5.1,48.7 3.7,47.7 2.7,46.4 1.7,45.1 1,43.7 0.6,42 0.2,40.4 0,38.7 0,36.9 L 0,1.6 C 0,0.9 0.1,0.5 0.4,0.3 Z"
           class="st0"
           id="Fill-1"
           inkscape:connector-curvature="0"
           style="fill:#ffffff" />
        <path
           d="m 190.7,46.4 c 0,1.1 -0.4,1.9 -1.3,2.3 -1,0.5 -2.1,0.9 -3.3,1.2 -1.2,0.3 -2.4,0.6 -3.7,0.8 -1.3,0.2 -2.5,0.3 -3.8,0.4 -1.2,0.1 -2.4,0.1 -3.5,0.1 -3.1,0 -5.7,-0.3 -7.7,-1 -2,-0.6 -3.6,-1.5 -4.8,-2.5 -1.2,-1.1 -2,-2.3 -2.5,-3.7 -0.5,-1.4 -0.7,-3 -0.7,-4.6 0,-1.6 0.3,-3.2 0.8,-4.8 0.5,-1.5 1.4,-2.9 2.6,-4 1.2,-1.2 2.8,-2.1 4.7,-2.8 1.9,-0.7 4.3,-1.1 7.1,-1.1 l 7.9,0 0,-1.2 c 0,-0.9 -0.1,-1.7 -0.3,-2.5 -0.2,-0.8 -0.5,-1.4 -1.1,-2 -0.5,-0.6 -1.3,-1 -2.2,-1.3 -0.9,-0.3 -2.2,-0.5 -3.6,-0.5 -1.6,0 -3.7,0.4 -4.9,0.8 -0.5,0.1 -0.9,0.2 -1.1,0.1 -0.2,-0.1 -0.4,-0.4 -0.5,-0.8 l -1,-4 c -0.2,-0.8 0,-1.2 0.6,-1.5 2,-0.8 6.1,-1.4 8.2,-1.4 4.9,0 8.4,1.1 10.7,3.3 2.3,2.2 3.4,5.3 3.4,9.5 l 0,21.2 z m -8.3,-13.4 -6.7,0 c -0.8,0 -1.6,0 -2.6,0.1 -0.9,0.1 -1.8,0.4 -2.6,0.8 -0.8,0.4 -1.5,1 -2,1.8 -0.5,0.8 -0.8,1.9 -0.8,3.3 0,2 0.7,3.4 2,4.2 1.4,0.8 3.2,1.2 5.4,1.2 0.3,0 0.8,0 1.4,0 0.6,0 1.2,-0.1 1.9,-0.2 0.7,-0.1 1.3,-0.2 2.1,-0.4 0.7,-0.1 1.4,-0.3 2,-0.6 l 0,-10.2 z"
           class="st0"
           id="Path"
           inkscape:connector-curvature="0"
           style="fill:#ffffff" />
        <path
           d="m 95.8,39.3 c 0,1.9 -0.3,3.5 -1,4.9 -0.7,1.4 -1.6,2.6 -2.9,3.5 -1.2,0.9 -2.7,1.6 -4.4,2.1 -1.7,0.5 -3.5,0.7 -5.5,0.8 -1.1,0 -2.3,0 -3.6,-0.1 C 77.1,50.4 75.9,50.3 74.6,50 73.3,49.8 72.1,49.5 70.9,49.1 69.7,48.7 68.6,48.3 67.6,47.7 66.9,47.3 66.7,46.8 67.1,46 l 1.6,-3.9 c 0.2,-0.4 0.5,-0.7 0.7,-0.8 0.2,-0.1 0.6,-0.1 1.1,0.2 1.7,0.8 3.6,1.3 5.6,1.7 2.1,0.4 3.9,0.6 5.5,0.6 2,0 3.4,-0.4 4.4,-1.2 1,-0.8 1.4,-1.8 1.4,-3 0,-1.3 -0.7,-2.4 -2,-3.2 -1.3,-0.8 -3.2,-1.6 -5.7,-2.5 -1.9,-0.7 -3.6,-1.3 -5.1,-2 C 73.2,31.2 72,30.5 71,29.6 70,28.8 69.3,27.8 68.8,26.8 68.3,25.7 68,24.5 68,23.1 c 0,-1.5 0.2,-2.9 0.8,-4.2 0.5,-1.3 1.4,-2.4 2.5,-3.3 1.1,-0.9 2.5,-1.7 4.1,-2.3 1.6,-0.6 3.5,-0.9 5.7,-0.9 2,0 3.9,0.1 5.9,0.4 2,0.3 3.9,0.8 5.7,1.5 0.4,0.2 0.6,0.4 0.7,0.7 0.1,0.3 0.1,0.6 0,1 l -1.5,4 c -0.1,0.4 -0.3,0.6 -0.5,0.6 -0.2,0.1 -0.5,0 -0.9,-0.1 -1.8,-0.6 -3.4,-1 -4.8,-1.2 C 84.5,19.1 83,19 81.4,19 c -1.7,0 -3,0.4 -3.8,1.1 -0.8,0.7 -1.2,1.5 -1.2,2.4 0,0.6 0.1,1.2 0.4,1.7 0.3,0.5 0.7,0.9 1.3,1.3 0.6,0.4 1.3,0.8 2.2,1.2 0.9,0.4 2,0.8 3.4,1.3 1.5,0.5 3,1.1 4.4,1.7 1.4,0.6 2.7,1.3 3.8,2.2 1.1,0.9 2,1.9 2.7,3.1 0.8,1.1 1.2,2.6 1.2,4.3"
           class="st0"
           id="Fill-3"
           inkscape:connector-curvature="0"
           style="fill:#ffffff" />
        <path
           d="m 122,49.6 c -1.6,0.5 -3.2,0.8 -4.8,0.9 -1.6,0.1 -2.8,0.1 -3.7,0.1 -3.8,0 -6.6,-0.8 -8.1,-2.5 -1.6,-1.7 -2.4,-4.2 -2.4,-7.6 l 0.2,-20.1 -5.2,0 c -0.5,0 -0.7,-0.1 -0.9,-0.3 -0.2,-0.2 -0.3,-0.4 -0.2,-0.8 0.1,-0.3 1.4,-3.7 1.4,-3.7 0.1,-0.1 0.4,-0.9 0.5,-1 0.1,-0.2 0.3,-0.3 0.9,-0.3 l 3.5,0 0,-6.8 c 0,-0.9 0.4,-1.1 0.6,-1.3 0.2,-0.2 0.6,-0.4 1.1,-0.6 l 5,-1.4 c 0.4,-0.1 0.7,-0.1 0.9,0.1 0.2,0.2 0.4,0.5 0.4,1 l 0,9 7.1,0 c 0.5,0 0.8,0.1 0.9,0.3 0.1,0.2 0.2,0.5 0.2,0.8 l 0,3.9 c 0,0.4 -0.1,0.7 -0.2,0.9 -0.1,0.2 -0.4,0.3 -0.9,0.3 l -7.1,0 0,19 c 0,1.5 0.4,2.5 1.1,3.1 0.7,0.6 1.8,0.8 3.2,0.8 0.3,0 0.7,0 1.1,0 0.5,0 0.9,-0.1 1.4,-0.1 0.5,0 1,-0.1 1.5,-0.2 0.5,-0.1 0.9,-0.1 1.2,-0.2 0.5,-0.1 0.8,-0.1 0.9,0 0.1,0.1 0.2,0.3 0.3,0.7 l 0.8,4.5 c 0,0.3 0.1,0.5 0,0.7 -0.1,0.4 -0.3,0.6 -0.7,0.8 z"
           class="st0"
           id="Fill-4"
           inkscape:connector-curvature="0"
           style="fill:#ffffff" />
        <path
           d="m 138.2,49.6 c 0,0.7 -0.1,1.1 -0.3,1.3 -0.2,0.2 -1.1,0.3 -1.8,0.3 l -4.6,0 c -0.5,0 -1,-0.1 -1.3,-0.3 -0.3,-0.2 -0.4,-0.6 -0.4,-1.3 l 0,-44.4 c 0,-0.6 0.1,-1.5 0.2,-2 0.1,-0.7 0.1,-0.9 0.5,-1.3 0.4,-0.5 1,-0.8 1.7,-0.9 0.4,-0.1 0.7,0 1.3,0 l 14.1,0 c 2.5,0 4.7,0.4 6.8,1.2 2,0.8 3.8,1.9 5.3,3.3 1.5,1.4 2.6,3.1 3.4,5.1 0.8,2 1.2,4.1 1.2,6.5 0,1.3 -0.2,3 -0.6,4.8 -0.4,1.9 -1.3,3.7 -2.5,5.4 -1.3,1.7 -3,3.2 -5.3,4.4 -2.3,1.2 -5.3,1.8 -9,1.8 l -8.5,0 0,16.1 z m 18,-34.8 c -0.3,-1 -0.7,-1.9 -1.4,-2.7 -0.7,-0.8 -1.6,-1.5 -2.8,-2.1 -1.2,-0.5 -2.7,-0.8 -4.5,-0.8 l -8.8,0 0,16.6 9,0 c 3.1,0 5.4,-0.8 6.8,-2.3 1.4,-1.5 2.1,-3.5 2.1,-5.9 0.1,-0.9 -0.1,-1.8 -0.4,-2.8 z"
           class="st0"
           id="Fill-5"
           inkscape:connector-curvature="0"
           style="fill:#ffffff" />
        <path
           d="m 221.8,44.7 c -0.7,1.4 -1.6,2.6 -2.9,3.5 -1.2,0.9 -2.7,1.6 -4.4,2.1 -1.7,0.5 -3.5,0.7 -5.5,0.8 -1.1,0 -2.3,0 -3.6,-0.1 -1.3,-0.1 -2.5,-0.2 -3.8,-0.5 -1.3,-0.2 -2.5,-0.5 -3.7,-0.9 -1.2,-0.4 -2.3,-0.8 -3.3,-1.4 -0.7,-0.4 -0.9,-0.9 -0.5,-1.7 l 1.6,-3.9 c 0.2,-0.4 0.5,-0.7 0.7,-0.8 0.2,-0.1 0.6,-0.1 1.1,0.2 1.7,0.8 3.6,1.3 5.6,1.7 2.1,0.4 3.9,0.6 5.5,0.6 2,0 3.4,-0.4 4.4,-1.2 1,-0.8 1.4,-1.8 1.4,-3 0,-1.3 -0.7,-2.4 -2,-3.2 -1.3,-0.8 -3.2,-1.6 -5.7,-2.5 -1.9,-0.7 -3.6,-1.3 -5.1,-2 -1.4,-0.7 -2.6,-1.4 -3.6,-2.3 -1,-0.8 -1.7,-1.8 -2.2,-2.8 -0.5,-1.1 -0.8,-2.3 -0.8,-3.7 0,-1.5 0.2,-2.9 0.8,-4.2 0.6,-1.3 1.4,-2.4 2.5,-3.3 1.1,-0.9 2.5,-1.7 4.1,-2.3 1.6,-0.6 3.5,-0.9 5.7,-0.9 2,0 3.9,0.1 5.9,0.4 2,0.3 3.9,0.8 5.7,1.5 0.4,0.2 0.6,0.4 0.7,0.7 0.1,0.3 0.1,0.6 0,1 l -1.5,4 c -0.1,0.4 -0.3,0.6 -0.5,0.6 -0.2,0.1 -0.5,0 -0.9,-0.1 -1.8,-0.6 -3.4,-1 -4.8,-1.2 -1.4,-0.2 -2.9,-0.3 -4.5,-0.3 -1.7,0 -3,0.4 -3.8,1.1 -0.8,0.7 -1.2,1.5 -1.2,2.4 0,0.6 0.1,1.2 0.4,1.7 0.3,0.5 0.7,0.9 1.3,1.3 0.6,0.4 1.3,0.8 2.2,1.2 0.9,0.4 2,0.8 3.4,1.3 1.5,0.5 3,1.1 4.4,1.7 1.4,0.6 2.7,1.3 3.8,2.2 1.1,0.9 2,1.9 2.7,3.1 0.7,1.2 1.1,2.6 1.1,4.4 0.3,1.7 0,3.3 -0.7,4.8 z"
           class="st0"
           id="Fill-7"
           inkscape:connector-curvature="0"
           style="fill:#ffffff" />
        <path
           d="m 254.2,39.8 c 0,1.9 -0.3,3.5 -1,4.9 -0.7,1.4 -1.6,2.6 -2.9,3.5 -1.2,0.9 -2.7,1.6 -4.4,2.1 -1.7,0.5 -3.5,0.7 -5.5,0.8 -1.1,0 -2.3,0 -3.6,-0.1 -1.3,-0.1 -2.5,-0.2 -3.8,-0.5 -1.3,-0.2 -2.5,-0.5 -3.7,-0.9 -1.2,-0.4 -2.3,-0.8 -3.3,-1.4 -0.7,-0.4 -0.9,-0.9 -0.5,-1.7 l 1.6,-3.9 c 0.2,-0.4 0.5,-0.7 0.7,-0.8 0.2,-0.1 0.6,-0.1 1.1,0.2 1.7,0.8 3.6,1.3 5.6,1.7 2.1,0.4 3.9,0.6 5.5,0.6 2,0 3.4,-0.4 4.4,-1.2 1,-0.8 1.4,-1.8 1.4,-3 0,-1.3 -0.7,-2.4 -2,-3.2 -1.3,-0.8 -3.2,-1.6 -5.7,-2.5 -1.9,-0.7 -3.6,-1.3 -5.1,-2 -1.4,-0.7 -2.6,-1.4 -3.6,-2.3 -1,-0.8 -1.7,-1.8 -2.2,-2.8 -0.5,-1.1 -0.8,-2.3 -0.8,-3.7 0,-1.5 0.2,-2.9 0.8,-4.2 0.5,-1.3 1.4,-2.4 2.5,-3.3 1.1,-0.9 2.5,-1.7 4.1,-2.3 1.6,-0.6 3.5,-0.9 5.7,-0.9 2,0 3.9,0.1 5.9,0.4 2,0.3 3.9,0.8 5.7,1.5 0.4,0.2 0.6,0.4 0.7,0.7 0.1,0.3 0.1,0.6 0,1 l -1.5,4 c -0.1,0.4 -0.3,0.6 -0.5,0.6 -0.2,0.1 -0.5,0 -0.9,-0.1 -1.8,-0.6 -3.4,-1 -4.8,-1.2 -1.4,-0.2 -2.9,-0.3 -4.5,-0.3 -1.7,0 -3,0.4 -3.8,1.1 -0.8,0.7 -1.2,1.5 -1.2,2.4 0,0.6 0.1,1.2 0.4,1.7 0.3,0.5 0.7,0.9 1.3,1.3 0.6,0.4 1.3,0.8 2.2,1.2 0.9,0.4 2,0.8 3.4,1.3 1.5,0.5 3,1.1 4.4,1.7 1.4,0.6 2.7,1.3 3.8,2.2 1.1,0.9 2,1.9 2.7,3.1 1.1,1.1 1.4,2.6 1.4,4.3"
           class="st0"
           id="Fill-8"
           inkscape:connector-curvature="0"
           style="fill:#ffffff" />
        <path
           d="m 63.8,45.9 c 0,1.1 -0.4,1.9 -1.3,2.3 -1,0.5 -2.1,0.9 -3.3,1.2 -1.2,0.3 -2.4,0.6 -3.7,0.8 -1.3,0.2 -2.5,0.3 -3.8,0.4 -1.2,0.1 -2.4,0.1 -3.5,0.1 -3.1,0 -5.7,-0.3 -7.7,-1 -2,-0.6 -3.6,-1.5 -4.8,-2.5 -1.2,-1.1 -2,-2.3 -2.5,-3.8 -0.5,-1.4 -0.7,-3 -0.7,-4.6 0,-1.7 0.3,-3.2 0.8,-4.8 0.5,-1.5 1.4,-2.9 2.6,-4 1.2,-1.2 2.8,-2.1 4.7,-2.8 1.9,-0.7 4.3,-1.1 7.1,-1.1 l 7.9,0 0,-1.2 c 0,-0.9 -0.1,-1.7 -0.3,-2.5 -0.2,-0.8 -0.6,-1.4 -1.1,-2 -0.5,-0.6 -1.3,-1 -2.2,-1.3 -0.9,-0.3 -2.2,-0.5 -3.6,-0.5 -1.6,0 -3.3,0.1 -5.2,0.4 -1.9,0.3 -3.4,0.6 -4.6,1 -0.5,0.1 -0.9,0.2 -1.1,0.1 C 37.3,20 37.1,19.7 37,19.3 l -1,-4 c -0.2,-0.8 0,-1.2 0.6,-1.5 2,-0.8 4.1,-1.3 6.5,-1.6 2.3,-0.3 4.5,-0.5 6.6,-0.5 4.9,0 8.4,1.1 10.7,3.3 2.3,2.2 3.4,5.3 3.4,9.5 l 0,21.4 0,0 z m -8.3,-13.3 -6.7,0 c -0.8,0 -1.6,0 -2.6,0.1 -0.9,0.1 -1.8,0.4 -2.6,0.8 -0.8,0.4 -1.5,1 -2,1.8 -0.5,0.8 -0.8,1.9 -0.8,3.3 0,2 0.7,3.4 2,4.2 1.4,0.8 3.2,1.2 5.4,1.2 0.3,0 0.8,0 1.4,0 0.6,0 1.2,-0.1 1.9,-0.2 0.7,-0.1 1.3,-0.2 2.1,-0.4 0.7,-0.1 1.4,-0.3 2,-0.6 l 0,-10.2 -0.1,0 z"
           class="st0"
           id="Fill-2"
           inkscape:connector-curvature="0"
           style="fill:#ffffff" />
      </g>
      <path
         d="m 347.4,12.9 c 0,-1.3 1,-2.3 2.3,-2.3 l 0,0 c 1.3,0 2.3,1 2.3,2.3 l 0,36.8 c 0,1.3 -1,2.3 -2.3,2.3 l 0,0 c -1.3,0 -2.3,-1 -2.3,-2.3 l 0,-36.8 z"
         class="st0"
         sketch:type="MSShapeGroup"
         id="Line"
         inkscape:connector-curvature="0"
         style="fill:#ffffff" />
      <g
         sketch:type="MSShapeGroup"
         transform="translate(266.62516,24.389381)"
         id="Dots">
        <circle
           cy="7.8000002"
           cx="7.8000002"
           class="st0"
           id="Oval-74"
           r="7.8000002"
           style="fill:#ffffff" />
        <circle
           cy="7.8000002"
           cx="33.799999"
           class="st0"
           id="Oval-74_1_"
           r="7.8000002"
           style="fill:#ffffff" />
        <circle
           cy="7.8000002"
           cx="59.799999"
           class="st0"
           id="Oval-74_2_"
           r="7.8000002"
           style="fill:#ffffff" />
      </g>
    </g>
  </g>
  <style
     id="style3460"
     type="text/css">
	.st0{fill:#FFFFFF;}
</style>
</svg>
